<svg xmlns="http://www.w3.org/2000/svg" viewBox="0 0 220 240" role="img" aria-label="곰곰이 oops"><ellipse cx="110" cy="230" rx="62" ry="9" fill="#F2BFD6" opacity=".38"/><g fill="#FFFCF8" stroke="#EFA9C6" stroke-width="11" stroke-linejoin="round"><ellipse cx="80" cy="216" rx="19" ry="13"/><ellipse cx="140" cy="216" rx="19" ry="13"/><ellipse cx="50" cy="178" rx="15" ry="19" transform="rotate(-8 50 178)"/><ellipse cx="170" cy="178" rx="15" ry="19" transform="rotate(8 170 178)"/><ellipse cx="110" cy="184" rx="46" ry="40"/></g><g fill="#FFFCF8"><ellipse cx="80" cy="216" rx="19" ry="13"/><ellipse cx="140" cy="216" rx="19" ry="13"/><ellipse cx="50" cy="178" rx="15" ry="19" transform="rotate(-8 50 178)"/><ellipse cx="170" cy="178" rx="15" ry="19" transform="rotate(8 170 178)"/><ellipse cx="110" cy="184" rx="46" ry="40"/></g><ellipse cx="110" cy="190" rx="25" ry="19" fill="#FFF0F7"/><g transform="rotate(0 110 150)"><g fill="#FFFCF8" stroke="#EFA9C6" stroke-width="11" stroke-linejoin="round"><circle cx="62" cy="48" r="27"/><circle cx="158" cy="48" r="27"/><ellipse cx="110" cy="94" rx="67" ry="58"/></g><g fill="#FFFCF8"><circle cx="62" cy="48" r="27"/><circle cx="158" cy="48" r="27"/><ellipse cx="110" cy="94" rx="67" ry="58"/></g><circle cx="62" cy="51" r="12.5" fill="#FFD3E4"/><circle cx="158" cy="51" r="12.5" fill="#FFD3E4"/><ellipse cx="56" cy="121" rx="14" ry="8.5" fill="#FFAECB" opacity=".8"/><ellipse cx="164" cy="121" rx="14" ry="8.5" fill="#FFAECB" opacity=".8"/><ellipse cx="81" cy="106" rx="9.5" ry="11" fill="#4A3B45"/><circle cx="84.4" cy="102" r="3.1" fill="#fff"/><circle cx="77.8" cy="110.4" r="1.7" fill="#fff" opacity=".7"/><ellipse cx="81" cy="119" rx="7" ry="8" fill="#9FD1F2" opacity=".9"/><ellipse cx="139" cy="106" rx="9.5" ry="11" fill="#4A3B45"/><circle cx="142.4" cy="102" r="3.1" fill="#fff"/><circle cx="135.8" cy="110.4" r="1.7" fill="#fff" opacity=".7"/><ellipse cx="139" cy="119" rx="7" ry="8" fill="#9FD1F2" opacity=".9"/><ellipse cx="110" cy="115" rx="5.5" ry="4.2" fill="#4A3B45"/><path d="M98 129 q6 -8 12 0 q6 8 12 0" fill="none" stroke="#4A3B45" stroke-width="4.2" stroke-linecap="round"/></g></svg>