<svg xmlns="http://www.w3.org/2000/svg" viewBox="0 0 220 240" role="img" aria-label="구름이 sleep"><ellipse cx="110" cy="218" rx="60" ry="9" fill="#B7DAF6" opacity=".4"/><g transform="rotate(0 110 150)"><g fill="#FFFFFF" stroke="#8DC3EC" stroke-width="11" stroke-linejoin="round"><ellipse cx="84" cy="206" rx="19" ry="13"/><ellipse cx="136" cy="206" rx="19" ry="13"/><ellipse cx="44" cy="158" rx="15" ry="18" transform="rotate(-6 44 158)"/><ellipse cx="176" cy="158" rx="15" ry="18" transform="rotate(6 176 158)"/><circle cx="66" cy="106" r="38"/><circle cx="110" cy="76" r="46"/><circle cx="156" cy="108" r="36"/><ellipse cx="110" cy="134" rx="72" ry="50"/></g><g fill="#FFFFFF"><ellipse cx="84" cy="206" rx="19" ry="13"/><ellipse cx="136" cy="206" rx="19" ry="13"/><ellipse cx="44" cy="158" rx="15" ry="18" transform="rotate(-6 44 158)"/><ellipse cx="176" cy="158" rx="15" ry="18" transform="rotate(6 176 158)"/><circle cx="66" cy="106" r="38"/><circle cx="110" cy="76" r="46"/><circle cx="156" cy="108" r="36"/><ellipse cx="110" cy="134" rx="72" ry="50"/></g><ellipse cx="56" cy="132" rx="14" ry="8.5" fill="#FFC0D4" opacity=".8"/><ellipse cx="164" cy="132" rx="14" ry="8.5" fill="#FFC0D4" opacity=".8"/><path d="M69.5 115 q11.5 10 23 0" fill="none" stroke="#3C5170" stroke-width="5.2" stroke-linecap="round"/><path d="M127.5 115 q11.5 10 23 0" fill="none" stroke="#3C5170" stroke-width="5.2" stroke-linecap="round"/><ellipse cx="110" cy="136" rx="4" ry="3.2" fill="#3C5170"/></g><g transform="translate(158 44) scale(1.2)" fill="none" stroke="#3C5170" stroke-width="3.4" stroke-linecap="round" stroke-linejoin="round"><path d="M0 0 h13 l-13 15 h13"/><path d="M18 -20 h10 l-10 12 h10"/></g></svg>