<svg xmlns="http://www.w3.org/2000/svg" viewBox="0 0 80 80" role="img" aria-label="새싹이 미니"><path d="M40 26 L40 10" fill="none" stroke="#5FBE72" stroke-width="3.4" stroke-linecap="round"/><path d="M40 15 C30 17 23 12 20 5 C32 2 39 8 40 14 Z" fill="#7FDA95" stroke="#5FBE72" stroke-width="2.2" stroke-linejoin="round"/><path d="M40 18 C50 20 58 15 61 8 C49 5 41 11 40 17 Z" fill="#A9EBB7" stroke="#5FBE72" stroke-width="2.2" stroke-linejoin="round"/><g fill="#FCFFF7" stroke="#8FCF9A" stroke-width="6" stroke-linejoin="round"><ellipse cx="40" cy="48" rx="26" ry="23"/></g><g fill="#FCFFF7"><ellipse cx="40" cy="48" rx="26" ry="23"/></g><ellipse cx="16" cy="59" rx="5.5" ry="3.4" fill="#FFC0D4" opacity=".8"/><ellipse cx="64" cy="59" rx="5.5" ry="3.4" fill="#FFC0D4" opacity=".8"/><circle cx="27" cy="50" r="3.6" fill="#3F5C46"/><circle cx="53" cy="50" r="3.6" fill="#3F5C46"/><path d="M35 60 q2.5 3.4 5 0 q2.5 3.4 5 0" fill="none" stroke="#3F5C46" stroke-width="1.9" stroke-linecap="round"/></svg>